HIERARCHY
ROOT joint_Root
{
	OFFSET 0.0 0.0 0.0
	CHANNELS 6 Xposition Yposition Zposition Zrotation Xrotation Yrotation 
	JOINT Hips
	{
		OFFSET 4.5925 91.4895 -427.239
		CHANNELS 6 Xposition Yposition Zposition Zrotation Xrotation Yrotation 
		JOINT Spine
		{
			OFFSET 15.7357 0.0 0.0
			CHANNELS 6 Xposition Yposition Zposition Zrotation Xrotation Yrotation 
			JOINT Chest
			{
				OFFSET 8.98455 -0.406207 0.0
				CHANNELS 6 Xposition Yposition Zposition Zrotation Xrotation Yrotation 
				JOINT Neck
				{
					OFFSET 16.3773 0.0 0.0
					CHANNELS 6 Xposition Yposition Zposition Zrotation Xrotation Yrotation 
					JOINT Head
					{
						OFFSET 6.45672 0.0 0.0
						CHANNELS 6 Xposition Yposition Zposition Zrotation Xrotation Yrotation 
						End Site
						{
							OFFSET 0.0 0.0 0.0
						}
					}
				}
				JOINT Shoulder_L
				{
					OFFSET 12.9942 -0.242716 4.98039
					CHANNELS 6 Xposition Yposition Zposition Zrotation Xrotation Yrotation 
					JOINT UpperArm_L
					{
						OFFSET 5.34809 0.0 0.0
						CHANNELS 6 Xposition Yposition Zposition Zrotation Xrotation Yrotation 
						JOINT LowerArm_L
						{
							OFFSET 24.3286 1.87007e-05 0.0
							CHANNELS 6 Xposition Yposition Zposition Zrotation Xrotation Yrotation 
							JOINT Hand_L
							{
								OFFSET 22.2916 0.0 0.0
								CHANNELS 6 Xposition Yposition Zposition Zrotation Xrotation Yrotation 
								End Site
								{
									OFFSET 0.0 0.0 0.0
								}
							}
						}
					}
				}
				JOINT Shoulder_R
				{
					OFFSET 12.9945 -0.242716 -4.98039
					CHANNELS 6 Xposition Yposition Zposition Zrotation Xrotation Yrotation 
					JOINT UpperArm_R
					{
						OFFSET -5.34813 0.0 0.0
						CHANNELS 6 Xposition Yposition Zposition Zrotation Xrotation Yrotation 
						JOINT LowerArm_R
						{
							OFFSET -24.3289 0.000322201 0.0
							CHANNELS 6 Xposition Yposition Zposition Zrotation Xrotation Yrotation 
							JOINT Hand_R
							{
								OFFSET -22.2915 -0.000108084 0.0
								CHANNELS 6 Xposition Yposition Zposition Zrotation Xrotation Yrotation 
								End Site
								{
									OFFSET 0.0 0.0 0.0
								}
							}
						}
					}
				}
			}
		}
		JOINT UpperLeg_L
		{
			OFFSET -2.19248 -6.46944 0.0
			CHANNELS 6 Xposition Yposition Zposition Zrotation Xrotation Yrotation 
			JOINT LowerLeg_L
			{
				OFFSET 39.0811 0.0 -1.23785e-05
				CHANNELS 6 Xposition Yposition Zposition Zrotation Xrotation Yrotation 
				JOINT Foot_L
				{
					OFFSET 40.9854 0.0 -1.26872e-05
					CHANNELS 6 Xposition Yposition Zposition Zrotation Xrotation Yrotation 
					JOINT Toes_L
					{
						OFFSET 11.7543 0.0 0.0
						CHANNELS 6 Xposition Yposition Zposition Zrotation Xrotation Yrotation 
						End Site
						{
							OFFSET 0.0 0.0 0.0
						}
					}
				}
			}
		}
		JOINT UpperLeg_R
		{
			OFFSET -2.19251 6.46944 0.0
			CHANNELS 6 Xposition Yposition Zposition Zrotation Xrotation Yrotation 
			JOINT LowerLeg_R
			{
				OFFSET -39.0811 -0.00228153 -0.0401928
				CHANNELS 6 Xposition Yposition Zposition Zrotation Xrotation Yrotation 
				JOINT Foot_R
				{
					OFFSET -40.9854 0.0 0.0
					CHANNELS 6 Xposition Yposition Zposition Zrotation Xrotation Yrotation 
					JOINT Toes_R
					{
						OFFSET -11.7543 0.0 0.0
						CHANNELS 6 Xposition Yposition Zposition Zrotation Xrotation Yrotation 
						End Site
						{
							OFFSET 0.0 0.0 0.0
						}
					}
				}
			}
		}
	}
}
MOTION
Frames:	4
Frame Time:	0.0333333
0.000000 0.000000 0.000000 0.000000 0.000000 -0.000000 -2.391610 82.368800 65.789300 -88.481100 3.199460 176.931000 15.735700 0.000005 -0.000001 73.097100 82.329400 -70.133200 8.984550 -0.406207 -0.000000 7.051490 -4.463600 6.199050 16.377300 -0.000001 -0.000001 -3.715500 -5.331600 3.300140 6.456720 -0.000001 -0.000000 -7.457670 -3.436540 6.604710 12.994200 -0.242716 4.980390 -90.498500 1.628010 -72.970300 5.348090 -0.000007 -0.000001 -71.971300 33.898300 1.404990 24.328600 0.000019 0.000005 30.985700 -2.392210 -93.986900 22.291600 -0.000001 0.000005 2.604240 5.458870 -4.983000 12.994500 -0.242716 -4.980390 87.333800 11.069700 -76.368200 -5.348130 -0.000001 -0.000004 -48.655800 38.193100 -17.184600 -24.328900 0.000322 -0.000009 -13.642800 3.927880 -105.749000 -22.291500 -0.000108 -0.000004 11.684900 5.468120 -5.291360 -2.192480 -6.469440 -0.000000 -176.668000 -5.540600 -14.307100 39.081100 -0.000007 -0.000012 -0.101715 -0.027358 105.061000 40.985400 -0.000006 -0.000013 8.617280 -8.421920 -42.250500 11.754300 -0.000000 0.000003 -0.005064 -0.062094 -19.103300 -2.192510 6.469440 -0.000001 -174.725000 5.944110 155.549000 -39.081100 -0.002282 -0.040193 -0.104021 0.063336 59.430500 -40.985400 0.000008 0.000006 10.684600 -1.319070 -88.818500 -11.754300 -0.000006 -0.000006 -0.000526 -0.008425 -16.916000
0.000000 0.000000 0.000000 0.000000 0.000000 -0.000000 -2.068080 82.966500 57.695800 -89.965200 3.240200 175.713000 15.735700 0.000005 -0.000001 85.978300 83.429900 -83.577800 8.984550 -0.406207 -0.000000 5.367340 -0.969644 4.841110 16.377300 -0.000001 -0.000001 -3.422180 -5.750830 3.895080 6.456720 -0.000001 -0.000000 -6.372970 -5.157310 6.806980 12.994200 -0.242716 4.980390 -90.181600 0.549728 -71.664100 5.348090 -0.000007 -0.000001 -72.701600 34.383000 6.531540 24.328600 0.000019 0.000005 38.881500 -4.893670 -96.044300 22.291600 -0.000001 0.000005 -4.691390 5.475060 -5.551880 12.994500 -0.242716 -4.980390 88.038400 8.927350 -77.556200 -5.348130 -0.000001 -0.000004 -53.895000 35.475700 -18.442100 -24.328900 0.000322 -0.000009 -10.650300 3.640180 -108.642000 -22.291500 -0.000108 -0.000004 9.875240 5.479850 -5.747580 -2.192480 -6.469440 -0.000000 179.950000 -4.258600 -26.707900 39.081100 -0.000007 -0.000012 -0.250193 -0.092124 110.217000 40.985400 -0.000006 -0.000013 10.028000 -7.256960 -44.564100 11.754300 -0.000000 0.000003 -0.005143 -0.062854 -19.134300 -2.192510 6.469440 -0.000001 -177.108000 7.695440 163.431000 -39.081100 -0.002282 -0.040193 0.136009 -0.097209 53.791300 -40.985400 0.000008 0.000006 11.859200 -0.378489 -91.485300 -11.754300 -0.000006 -0.000006 -0.144820 -0.193888 -17.668100
0.000000 0.000000 0.000000 0.000000 0.000000 -0.000000 -1.844060 85.079300 48.709200 -92.013300 3.030710 175.112000 15.735700 0.000005 -0.000001 100.508000 83.926000 -99.351400 8.984550 -0.406207 -0.000000 4.159730 2.175700 2.232280 16.377300 -0.000001 -0.000001 -2.999720 -5.916480 4.219120 6.456720 -0.000001 -0.000000 -6.183610 -7.200070 8.866830 12.994200 -0.242716 4.980390 -89.612000 -1.073020 -70.134900 5.348090 -0.000007 -0.000001 -70.224200 38.118600 9.870650 24.328600 0.000019 0.000005 29.278100 -6.574410 -101.556000 22.291600 -0.000001 0.000005 -3.046620 5.451760 -4.702430 12.994500 -0.242716 -4.980390 88.468400 7.206610 -77.968900 -5.348130 -0.000001 -0.000004 -58.157000 35.598300 -17.988100 -24.328900 0.000322 -0.000009 -14.089800 6.168190 -113.168000 -22.291500 -0.000108 -0.000004 9.971220 5.495080 -6.335770 -2.192480 -6.469440 -0.000000 176.114000 -1.828470 -34.518200 39.081100 -0.000007 -0.000012 -0.290934 -0.085388 106.359000 40.985400 -0.000006 -0.000013 9.418540 -8.146000 -48.755200 11.754300 -0.000000 0.000003 -0.005315 -0.064490 -19.201000 -2.192510 6.469440 -0.000001 179.579000 8.306370 172.774000 -39.081100 -0.002282 -0.040193 0.124679 -0.122226 44.809200 -40.985400 0.000008 0.000006 12.116200 1.915650 -83.497500 -11.754300 -0.000006 -0.000006 -0.775743 -0.890492 -25.031700
0.000000 0.000000 0.000000 0.000000 0.000000 -0.000000 -1.687150 88.056500 39.432900 -93.648100 4.104890 173.128000 15.735700 0.000005 -0.000001 116.473000 84.299500 -116.618000 8.984550 -0.406207 -0.000000 2.454860 5.084920 -0.397934 16.377300 -0.000001 -0.000001 -3.230800 -5.561070 3.976340 6.456720 -0.000001 -0.000000 -6.756860 -8.273600 8.625800 12.994200 -0.242716 4.980390 -89.012700 -2.503970 -68.482200 5.348090 -0.000007 -0.000001 -67.615700 39.805500 12.863300 24.328600 0.000019 0.000005 24.968500 -8.121950 -106.877000 22.291600 -0.000001 0.000005 -2.405400 5.451310 -4.686530 12.994500 -0.242716 -4.980390 88.909900 5.385730 -78.542000 -5.348130 -0.000001 -0.000004 -60.756600 38.200100 -18.002900 -24.328900 0.000322 -0.000009 -14.147000 7.096390 -116.113000 -22.291500 -0.000108 -0.000004 9.512100 5.496200 -6.374860 -2.192480 -6.469440 -0.000000 173.250000 -0.249755 -39.990000 39.081100 -0.000007 -0.000012 -0.209968 -0.020358 95.540600 40.985400 -0.000006 -0.000013 8.308190 -8.780600 -52.284000 11.754300 -0.000000 0.000003 -0.005520 -0.066422 -19.279700 -2.192510 6.469440 -0.000001 175.984000 10.217200 177.974000 -39.081100 -0.002282 -0.040193 0.107586 -0.131338 38.455300 -40.985400 0.000008 0.000006 12.246100 7.716350 -68.716700 -11.754300 -0.000006 -0.000006 -0.146070 -0.546920 -39.679400
